<svg xmlns:xlink="http://www.w3.org/1999/xlink" xmlns="http://www.w3.org/2000/svg" version="1.1" viewBox="0 0 337 365" height="365px" width="337px">
    
    <title>grafana_icon</title>
    <desc>Created with Sketch.</desc>
    <defs>
        <polygon points="0 0 335 0 335 363 0 363" id="path-1"></polygon>
    </defs>
    <style type="text/css">
        .st0{fill:#FE5002;}
    </style>
    <g fill-rule="evenodd" fill="none" stroke-width="1" stroke="none" id="Page-1">
        <g transform="translate(1.000000, 1.000000)" id="grafana_icon">
            
            <path class="st0" fill-rule="nonzero" fill="#FE5002" id="Shape" d="M90.6435644,345 C77.3217822,345 64,334.78125 64,315.365625 L64,269.38125 C64,250.9875 76.2970297,230.55 91.6683168,220.33125 L157.252475,181.5 L92.6930693,143.690625 C77.3217822,134.49375 65.0247525,113.034375 65.0247525,95.6625 L65.0247525,47.634375 C64,28.21875 77.3217822,18 91.6683168,18 C97.8168317,18 102.940594,20.04375 109.089109,23.109375 L254.60396,109.96875 C264.851485,116.1 271,125.296875 271,135.515625 C271,145.734375 264.851485,154.93125 254.60396,161.0625 L219.762376,181.5 L254.60396,201.9375 C264.851485,208.06875 271,217.265625 271,227.484375 C271,237.703125 264.851485,246.9 254.60396,253.03125 L108.064356,339.890625 C102.940594,342.95625 96.7920792,345 90.6435644,345 Z M187.99505,199.89375 L108.064356,246.9 C101.915842,250.9875 95.7673267,261.20625 95.7673267,268.359375 L95.7673267,309.234375 L234.108911,227.484375 L187.99505,199.89375 Z M96.7920792,52.74375 L96.7920792,94.640625 C96.7920792,101.79375 102.940594,112.0125 109.089109,116.1 L189.019802,163.10625 L236.158416,135.515625 L96.7920792,52.74375 Z"></path>
        </g>
    </g>
</svg>
