<svg width="81px" height="34px" viewBox="0 0 81 34" version="1.1" xmlns="http://www.w3.org/2000/svg">
  <g id="Page-1" stroke="none" stroke-width="1" fill="none" fill-rule="evenodd">
    <g id="logo-footer">
      <g id="Group">
        <g transform="translate(28.000000, 6.000000)" id="Shape" fill="#414042">
          <path
            d="M4.3,21.3 L0.2,21.3 L0.2,0 L4.3,0 L4.3,7.9 C5,7.1 6.4,6.4 8,6.4 C12.3,6.4 14.7,9.9 14.7,14.1 C14.7,18.3 12.3,21.7 8,21.7 C6.4,21.7 5,20.9 4.3,20.2 L4.3,21.3 L4.3,21.3 Z M4.3,16.4 C4.8,17.4 5.8,18.1 7.1,18.1 C9.3,18.1 10.6,16.3 10.6,14 C10.6,11.6 9.3,9.9 7.1,9.9 C5.9,9.9 4.8,10.6 4.3,11.6 L4.3,16.4 L4.3,16.4 Z"></path>
          <path
            d="M32.4,6.3 C35.4,6.3 37.2,8.4 37.2,11.7 L37.2,21.3 L33.1,21.3 L33.1,12.6 C33.1,11 32.4,10 31,10 C30,10 29,10.7 28.7,11.9 L28.7,21.3 L24.6,21.3 L24.6,12.6 C24.6,11 23.9,10 22.5,10 C21.5,10 20.5,10.7 20.2,11.9 L20.2,21.3 L16.1,21.3 L16.1,6.7 L20.2,6.7 L20.2,7.9 C20.9,7 22.3,6.4 23.9,6.4 C25.6,6.4 27,7.2 27.8,8.3 C29,7.1 30.4,6.3 32.4,6.3 L32.4,6.3 Z"></path>
          <path
            d="M45.9,6.3 C49.6,6.3 51.9,8.5 52.3,11.6 L48.3,11.6 C48.1,10.5 47.2,9.8 45.9,9.8 C44,9.8 42.9,11.5 42.9,14 C42.9,16.5 44,18.2 45.9,18.2 C47.2,18.2 48.1,17.5 48.3,16.4 L52.3,16.4 C51.9,19.5 49.5,21.7 45.9,21.7 C41.7,21.7 38.8,18.6 38.8,14.1 C38.9,9.4 41.8,6.3 45.9,6.3 L45.9,6.3 Z"></path>
        </g>
        <path
          d="M2.8,33.6 C1.4,33.6 0,32.5 0,30.5 L0,25.7 C0,23.8 1.2,21.7 2.8,20.7 L9.4,16.8 L2.8,12.9 C1.2,11.9 -8.8817842e-16,9.8 -8.8817842e-16,7.9 L-8.8817842e-16,3.1 C0,1.1 1.4,0 2.8,0 C3.4,0 4,0.2 4.5,0.5 L19.5,9.4 C20.5,10 21.1,11 21.1,12 C21.1,13 20.5,14 19.5,14.6 L15.9,16.7 L19.5,18.8 C20.5,19.4 21.1,20.4 21.1,21.4 C21.1,22.4 20.5,23.4 19.5,24 L4.5,32.9 C3.9,33.5 3.4,33.6 2.8,33.6 L2.8,33.6 Z M12.7,18.7 L4.5,23.6 C3.9,24 3.3,25 3.3,25.8 L3.3,30 L17.5,21.6 L12.7,18.7 L12.7,18.7 Z M3.3,3.6 L3.3,7.9 C3.3,8.6 3.9,9.7 4.5,10.1 L12.7,15 L17.5,12.2 L3.3,3.6 L3.3,3.6 Z"
          id="logo" fill="#EF5023"></path>
      </g>
    </g>
  </g>
</svg>
